<svg width="120" height="96" viewBox="0 0 120 96" fill="none" xmlns="http://www.w3.org/2000/svg">
  <rect x="14" y="20" width="92" height="60" rx="18" fill="#FCE7F3"/>
  <path d="M24 33C24 28.5817 27.5817 25 32 25H88C92.4183 25 96 28.5817 96 33V67C96 71.4183 92.4183 75 88 75H32C27.5817 75 24 71.4183 24 67V33Z" fill="#FBCFE8"/>
  <path d="M27 33L54.4934 53.2041C57.7095 55.5671 62.0905 55.5671 65.3066 53.2041L93 33" stroke="#EC4899" stroke-width="4" stroke-linecap="round" stroke-linejoin="round"/>
  <path d="M28 72L49.5 50.5" stroke="#F9A8D4" stroke-width="3.5" stroke-linecap="round"/>
  <path d="M92 72L70.5 50.5" stroke="#F9A8D4" stroke-width="3.5" stroke-linecap="round"/>
  <circle cx="34" cy="26" r="5" fill="white" fill-opacity="0.75"/>
  <circle cx="87" cy="70" r="3.5" fill="white" fill-opacity="0.55"/>
  <path d="M60 34.5C62.4 30.8 69 32.2 69 37.8C69 43.4 60 47.8 60 47.8C60 47.8 51 43.4 51 37.8C51 32.2 57.6 30.8 60 34.5Z" fill="white"/>
</svg>
